<?xml version="1.0" encoding="UTF-8"?>
<!DOCTYPE svg PUBLIC "-//W3C//DTD SVG 1.1//EN" "http://www.w3.org/Graphics/SVG/1.1/DTD/svg11.dtd">
<!-- Creator: CorelDRAW 2019 (64-Bit) -->
<svg xmlns="http://www.w3.org/2000/svg" xml:space="preserve" width="300px" height="100px" version="1.1" style="shape-rendering:geometricPrecision; text-rendering:geometricPrecision; image-rendering:optimizeQuality; fill-rule:evenodd; clip-rule:evenodd"
viewBox="0 0 300 100"
 xmlns:xlink="http://www.w3.org/1999/xlink"
 xmlns:xodm="http://www.corel.com/coreldraw/odm/2003">
 <defs>
  <style type="text/css">
   <![CDATA[
    .fil0 {fill:#4BAD3B}
    .fil1 {fill:#FEFEFE;fill-rule:nonzero}
    .fil2 {fill:white;fill-rule:nonzero}
   ]]>
  </style>
 </defs>
 <g id="Слой_x0020_1">
  <metadata id="CorelCorpID_0Corel-Layer"/>
  <rect class="fil0" x="-0.001" width="300.001" height="100" rx="14.026" ry="14.545"/>
  <polygon class="fil1" points="100.066,24.176 104.226,24.176 104.226,41.483 100.066,41.483 "/>
  <polygon id="1" class="fil1" points="107.959,24.176 112.173,24.176 120.546,35.989 120.546,24.176 124.253,24.176 124.253,41.483 120.039,41.483 111.666,29.483 111.666,41.483 107.959,41.483 "/>
  <path id="2" class="fil1" d="M139.72 41.75c-1.654,0 -3.698,-0.161 -6.134,-0.48l0 -3.174c3.022,0.462 5.084,0.693 6.187,0.693 2.311,0 3.467,-0.595 3.467,-1.786l0 -1.12c0,-0.569 -0.165,-1.005 -0.494,-1.307 -0.329,-0.302 -0.92,-0.453 -1.773,-0.453l-2.027 0c-3.804,0 -5.706,-1.512 -5.706,-4.534l0 -1.28c0,-1.511 0.63,-2.622 1.893,-3.333 1.262,-0.711 3.262,-1.067 6,-1.067 1.422,0 3.226,0.116 5.413,0.347l0 3.093c-2.684,-0.32 -4.533,-0.48 -5.547,-0.48 -1.404,0 -2.346,0.116 -2.826,0.347 -0.516,0.249 -0.774,0.64 -0.774,1.173l0 1.227c0,0.906 0.765,1.36 2.294,1.36l2.08 0c1.973,0 3.404,0.364 4.293,1.093 0.889,0.729 1.334,1.84 1.334,3.334l0 1.146c0,2.062 -0.738,3.458 -2.214,4.187 -0.711,0.373 -1.497,0.636 -2.36,0.787 -0.862,0.151 -1.898,0.227 -3.106,0.227z"/>
  <polygon id="3" class="fil1" points="154.28,27.136 148.946,27.136 148.946,24.176 163.747,24.176 163.747,27.136 158.44,27.136 158.44,41.483 154.28,41.483 "/>
  <path id="4" class="fil1" d="M173.96 41.75c-0.96,0 -1.844,-0.063 -2.653,-0.187 -0.809,-0.125 -1.649,-0.338 -2.52,-0.64 -0.943,-0.32 -1.68,-0.84 -2.214,-1.56 -0.533,-0.72 -0.8,-1.596 -0.8,-2.627l0 -7.573c0,-0.854 0.191,-1.618 0.573,-2.294 0.383,-0.675 0.876,-1.209 1.481,-1.6 0.533,-0.338 1.19,-0.622 1.973,-0.853 0.782,-0.231 1.511,-0.374 2.187,-0.427 0.622,-0.053 1.279,-0.08 1.973,-0.08 0.818,0 1.529,0.031 2.133,0.094 0.605,0.062 1.28,0.191 2.027,0.386 0.853,0.249 1.555,0.551 2.106,0.907 0.552,0.355 1.014,0.853 1.387,1.493 0.391,0.658 0.587,1.449 0.587,2.374l0 7.573c0,0.96 -0.253,1.787 -0.76,2.48 -0.507,0.693 -1.204,1.218 -2.093,1.574 -1.6,0.639 -3.396,0.96 -5.387,0.96zm0.053 -2.961c0.587,0 1.08,-0.022 1.48,-0.067 0.4,-0.044 0.814,-0.128 1.24,-0.253 0.427,-0.124 0.751,-0.333 0.974,-0.626 0.222,-0.294 0.333,-0.663 0.333,-1.107l0 -7.6c0,-0.818 -0.329,-1.4 -0.987,-1.747 -0.657,-0.346 -1.68,-0.52 -3.067,-0.52 -1.386,0 -2.408,0.169 -3.066,0.507 -0.658,0.338 -0.987,0.924 -0.987,1.76l0 7.6c0,0.444 0.116,0.813 0.347,1.107 0.231,0.293 0.569,0.502 1.013,0.626 0.427,0.125 0.84,0.209 1.24,0.253 0.4,0.045 0.894,0.067 1.48,0.067z"/>
  <path id="5" class="fil1" d="M193.213 41.75c-0.782,0 -1.479,-0.036 -2.093,-0.107 -0.613,-0.071 -1.284,-0.205 -2.013,-0.4 -0.818,-0.213 -1.493,-0.494 -2.027,-0.841 -0.533,-0.346 -0.977,-0.831 -1.333,-1.453 -0.374,-0.622 -0.56,-1.36 -0.56,-2.213l0 -7.6c0,-3.485 2.675,-5.227 8.026,-5.227 1.369,0 3.2,0.196 5.494,0.587l0 3.12c-2.062,-0.498 -3.876,-0.747 -5.44,-0.747 -0.658,0 -1.169,0.018 -1.533,0.053 -0.365,0.036 -0.743,0.125 -1.134,0.267 -0.835,0.285 -1.253,0.916 -1.253,1.893l0 7.361c0,1.564 1.431,2.346 4.293,2.346 1.227,0 2.951,-0.257 5.173,-0.773l0 3.147c-1.902,0.391 -3.768,0.587 -5.6,0.587z"/>
  <path id="6" class="fil1" d="M201.48 24.176l4.16 0 0 17.307 -4.16 0 0 -17.307zm4.267 8.133l6.48 -8.133 4.88 0 -6.56 8.053 7.28 9.254 -5.067 0 -7.013 -9.174z"/>
  <path id="7" class="fil1" d="M100.066 58.203l7.013 0c1.653,0 2.929,0.12 3.827,0.36 0.897,0.24 1.533,0.622 1.906,1.147 0.373,0.524 0.56,1.257 0.56,2.2l0 2.133c0,0.48 -0.191,0.933 -0.573,1.36 -0.382,0.427 -0.831,0.72 -1.347,0.88l0 0.133c0.676,0.072 1.293,0.36 1.854,0.867 0.56,0.507 0.839,1.071 0.839,1.694l0 2.666c0,1.404 -0.559,2.4 -1.68,2.987 -1.119,0.587 -2.853,0.88 -5.199,0.88l-7.2 0 0 -17.307zm7.013 7.04c0.658,0 1.147,-0.053 1.467,-0.16 0.319,-0.107 0.537,-0.28 0.653,-0.52 0.115,-0.24 0.173,-0.591 0.173,-1.053l0 -0.854c0,-0.409 -0.053,-0.715 -0.16,-0.92 -0.107,-0.204 -0.324,-0.351 -0.653,-0.439 -0.329,-0.09 -0.849,-0.134 -1.56,-0.134l-2.773 0 0 4.08 2.853 0zm0.106 7.307c1.014,0 1.734,-0.116 2.16,-0.347 0.427,-0.231 0.641,-0.604 0.641,-1.12l0 -1.386c0,-0.641 -0.165,-1.094 -0.494,-1.361 -0.329,-0.266 -0.911,-0.4 -1.746,-0.4l-3.52 0 0 4.614 2.959 0z"/>
  <polygon id="8" class="fil1" points="123.132,58.203 127.293,58.203 127.293,65.137 134.652,65.137 134.652,58.203 138.813,58.203 138.813,75.51 134.652,75.51 134.652,68.096 127.293,68.096 127.293,75.51 123.132,75.51 "/>
  <path id="9" class="fil1" d="M147.133 58.203l5.066 0 6.24 17.307 -4.213 0 -1.547 -4.56 -6.32 0 -1.52 4.56 -4.106 0 6.4 -17.307zm4.64 9.973l-2.187 -6.506 -0.107 0 -2.186 6.506 4.48 0z"/>
  <path id="10" class="fil1" d="M163.559 68.79c-1.12,-0.142 -1.955,-0.498 -2.506,-1.067 -0.552,-0.569 -0.827,-1.378 -0.827,-2.427l0 -3.44c0,-1.315 0.515,-2.253 1.547,-2.813 1.031,-0.56 2.702,-0.84 5.013,-0.84l7.653 0 0 17.307 -4.16 0 0 -6.4 -2.453 0 -4.053 6.4 -4.747 0 4.533 -6.72zm6.72 -2.427l0 -5.2 -3.44 0c-0.924,0 -1.578,0.12 -1.96,0.36 -0.382,0.24 -0.573,0.68 -0.573,1.32l0 1.627c0,0.746 0.178,1.249 0.533,1.506 0.356,0.258 1.023,0.387 2,0.387l3.44 0z"/>
  <path id="11" class="fil1" d="M178.173 58.203l7.013 0c1.654,0 2.929,0.12 3.827,0.36 0.897,0.24 1.533,0.622 1.907,1.147 0.373,0.524 0.559,1.257 0.559,2.2l0 2.133c0,0.48 -0.191,0.933 -0.573,1.36 -0.382,0.427 -0.831,0.72 -1.347,0.88l0 0.133c0.676,0.072 1.294,0.36 1.854,0.867 0.56,0.507 0.84,1.071 0.84,1.694l0 2.666c0,1.404 -0.56,2.4 -1.68,2.987 -1.12,0.587 -2.854,0.88 -5.2,0.88l-7.2 0 0 -17.307zm7.013 7.04c0.658,0 1.147,-0.053 1.467,-0.16 0.32,-0.107 0.538,-0.28 0.653,-0.52 0.116,-0.24 0.173,-0.591 0.173,-1.053l0 -0.854c0,-0.409 -0.053,-0.715 -0.159,-0.92 -0.107,-0.204 -0.325,-0.351 -0.654,-0.439 -0.329,-0.09 -0.849,-0.134 -1.56,-0.134l-2.773 0 0 4.08 2.853 0zm0.107 7.307c1.013,0 1.733,-0.116 2.16,-0.347 0.426,-0.231 0.64,-0.604 0.64,-1.12l0 -1.386c0,-0.641 -0.165,-1.094 -0.494,-1.361 -0.329,-0.266 -0.911,-0.4 -1.746,-0.4l-3.52 0 0 4.614 2.96 0z"/>
  <polygon id="12" class="fil1" points="195.106,58.203 199.266,58.203 199.266,65.137 206.626,65.137 206.626,58.203 210.786,58.203 210.786,75.51 206.626,75.51 206.626,68.096 199.266,68.096 199.266,75.51 195.106,75.51 "/>
  <path id="13" class="fil1" d="M222.333 75.777c-0.96,0 -1.844,-0.063 -2.653,-0.187 -0.809,-0.125 -1.649,-0.338 -2.52,-0.64 -0.943,-0.32 -1.68,-0.84 -2.214,-1.56 -0.533,-0.72 -0.8,-1.596 -0.8,-2.627l0 -7.573c0,-0.854 0.192,-1.618 0.574,-2.294 0.382,-0.675 0.875,-1.208 1.48,-1.6 0.533,-0.337 1.191,-0.622 1.973,-0.853 0.782,-0.231 1.511,-0.373 2.187,-0.427 0.622,-0.053 1.28,-0.079 1.973,-0.079 0.818,0 1.529,0.031 2.133,0.093 0.605,0.062 1.28,0.191 2.027,0.387 0.853,0.248 1.556,0.551 2.107,0.906 0.551,0.356 1.013,0.853 1.386,1.494 0.392,0.657 0.587,1.448 0.587,2.373l0 7.573c0,0.96 -0.253,1.787 -0.76,2.48 -0.507,0.693 -1.204,1.218 -2.093,1.574 -1.6,0.64 -3.396,0.96 -5.387,0.96zm0.053 -2.96c0.587,0 1.08,-0.023 1.481,-0.067 0.399,-0.045 0.813,-0.129 1.24,-0.254 0.426,-0.124 0.751,-0.333 0.973,-0.626 0.222,-0.294 0.333,-0.662 0.333,-1.107l0 -7.6c0,-0.818 -0.329,-1.4 -0.987,-1.747 -0.657,-0.346 -1.68,-0.52 -3.066,-0.52 -1.387,0 -2.409,0.169 -3.067,0.507 -0.658,0.338 -0.987,0.925 -0.987,1.76l0 7.6c0,0.445 0.116,0.813 0.347,1.107 0.231,0.293 0.569,0.502 1.013,0.626 0.427,0.125 0.841,0.209 1.24,0.254 0.4,0.044 0.894,0.067 1.48,0.067z"/>
  <path id="14" class="fil1" d="M241.586 75.777c-0.781,0 -1.479,-0.036 -2.093,-0.107 -0.613,-0.071 -1.284,-0.205 -2.013,-0.4 -0.818,-0.213 -1.493,-0.493 -2.027,-0.84 -0.533,-0.347 -0.977,-0.831 -1.333,-1.454 -0.373,-0.622 -0.56,-1.359 -0.56,-2.213l0 -7.6c0,-3.484 2.675,-5.226 8.026,-5.226 1.369,0 3.201,0.195 5.494,0.586l0 3.12c-2.062,-0.498 -3.875,-0.747 -5.44,-0.747 -0.658,0 -1.169,0.018 -1.533,0.054 -0.365,0.035 -0.742,0.124 -1.134,0.266 -0.835,0.285 -1.253,0.916 -1.253,1.894l0 7.36c0,1.564 1.431,2.347 4.293,2.347 1.227,0 2.952,-0.258 5.174,-0.774l0 3.147c-1.903,0.391 -3.769,0.587 -5.601,0.587z"/>
  <polygon id="15" class="fil1" points="253.853,61.163 248.52,61.163 248.52,58.203 263.32,58.203 263.32,61.163 258.014,61.163 258.014,75.51 253.853,75.51 "/>
  <polygon id="16" class="fil1" points="265.72,58.203 269.88,58.203 269.88,75.51 265.72,75.51 "/>
  <path class="fil2" d="M25.469 51.941l-1.995 -2.154c-0.234,-0.299 -0.352,-0.608 -0.352,-0.939 0,-0.395 0.16,-0.757 0.47,-1.067l5.76 -5.407c0.266,-0.225 0.586,-0.342 0.96,-0.342 0.192,0 0.373,0.043 0.565,0.107 0.192,0.075 0.342,0.181 0.469,0.331l15.84 17.098 27.286 -35.125c0.309,-0.363 0.683,-0.534 1.12,-0.534 0.341,0 0.629,0.107 0.874,0.31l6.283 4.843c0.128,0.106 0.245,0.255 0.363,0.458 0.117,0.192 0.17,0.373 0.17,0.544 0,0.352 -0.106,0.683 -0.309,1.003l-35.061 45.024 -22.443 -24.15z"/>
 </g>
</svg>
