<?xml version="1.0" encoding="UTF-8"?>
<!DOCTYPE svg PUBLIC "-//W3C//DTD SVG 1.1//EN" "http://www.w3.org/Graphics/SVG/1.1/DTD/svg11.dtd">
<!-- Creator: CorelDRAW 2019 (64-Bit) -->
<svg xmlns="http://www.w3.org/2000/svg" xml:space="preserve" width="300px" height="100px" version="1.1" style="shape-rendering:geometricPrecision; text-rendering:geometricPrecision; image-rendering:optimizeQuality; fill-rule:evenodd; clip-rule:evenodd"
viewBox="0 0 300 100"
 xmlns:xlink="http://www.w3.org/1999/xlink"
 xmlns:xodm="http://www.corel.com/coreldraw/odm/2003">
 <defs>
  <style type="text/css">
   <![CDATA[
    .fil0 {fill:gray}
    .fil1 {fill:#FEFEFE;fill-rule:nonzero}
    .fil2 {fill:white;fill-rule:nonzero}
   ]]>
  </style>
 </defs>
 <g id="Слой_x0020_1">
  <metadata id="CorelCorpID_0Corel-Layer"/>
  <rect class="fil0" x="-0.001" width="300.001" height="100" rx="14.026" ry="14.545"/>
  <path class="fil1" d="M107.879 41.75c-0.96,0 -1.844,-0.063 -2.653,-0.187 -0.809,-0.125 -1.649,-0.338 -2.52,-0.64 -0.943,-0.32 -1.68,-0.84 -2.214,-1.56 -0.533,-0.72 -0.8,-1.596 -0.8,-2.627l0 -7.573c0,-0.854 0.191,-1.618 0.573,-2.294 0.383,-0.675 0.876,-1.209 1.481,-1.6 0.533,-0.338 1.19,-0.622 1.973,-0.853 0.782,-0.231 1.511,-0.374 2.187,-0.427 0.622,-0.053 1.279,-0.08 1.973,-0.08 0.818,0 1.529,0.031 2.133,0.094 0.605,0.062 1.28,0.191 2.027,0.386 0.853,0.249 1.555,0.551 2.106,0.907 0.552,0.355 1.014,0.853 1.387,1.493 0.391,0.658 0.587,1.449 0.587,2.374l0 7.573c0,0.96 -0.254,1.787 -0.76,2.48 -0.507,0.693 -1.205,1.218 -2.093,1.574 -1.6,0.639 -3.396,0.96 -5.387,0.96zm0.053 -2.961c0.587,0 1.08,-0.022 1.48,-0.067 0.4,-0.044 0.814,-0.128 1.24,-0.253 0.427,-0.124 0.751,-0.333 0.974,-0.626 0.222,-0.294 0.333,-0.663 0.333,-1.107l0 -7.6c0,-0.818 -0.329,-1.4 -0.987,-1.747 -0.658,-0.346 -1.68,-0.52 -3.067,-0.52 -1.386,0 -2.408,0.169 -3.066,0.507 -0.658,0.338 -0.987,0.924 -0.987,1.76l0 7.6c0,0.444 0.116,0.813 0.347,1.107 0.231,0.293 0.569,0.502 1.013,0.626 0.427,0.125 0.84,0.209 1.24,0.253 0.4,0.045 0.894,0.067 1.48,0.067z"/>
  <path id="1" class="fil1" d="M126.919 41.75c-4.995,0 -7.493,-1.672 -7.493,-5.014l0 -12.56 4.16 0 0 12.56c0,0.782 0.253,1.32 0.76,1.613 0.506,0.294 1.382,0.44 2.626,0.44 1.227,0 2.085,-0.146 2.574,-0.44 0.489,-0.293 0.733,-0.831 0.733,-1.613l0 -12.56 4.16 0 0 12.56c0,3.342 -2.506,5.014 -7.52,5.014z"/>
  <polygon id="2" class="fil1" points="142.119,27.136 136.786,27.136 136.786,24.176 151.586,24.176 151.586,27.136 146.279,27.136 146.279,41.483 142.119,41.483 "/>
  <path id="3" class="fil1" d="M167.933 41.75c-0.96,0 -1.844,-0.063 -2.653,-0.187 -0.809,-0.125 -1.649,-0.338 -2.52,-0.64 -0.943,-0.32 -1.68,-0.84 -2.214,-1.56 -0.533,-0.72 -0.8,-1.596 -0.8,-2.627l0 -7.573c0,-0.854 0.192,-1.618 0.574,-2.294 0.382,-0.675 0.875,-1.209 1.48,-1.6 0.533,-0.338 1.191,-0.622 1.973,-0.853 0.782,-0.231 1.511,-0.374 2.187,-0.427 0.622,-0.053 1.28,-0.08 1.973,-0.08 0.818,0 1.529,0.031 2.133,0.094 0.605,0.062 1.28,0.191 2.027,0.386 0.853,0.249 1.556,0.551 2.107,0.907 0.551,0.355 1.013,0.853 1.386,1.493 0.392,0.658 0.587,1.449 0.587,2.374l0 7.573c0,0.96 -0.253,1.787 -0.76,2.48 -0.507,0.693 -1.204,1.218 -2.093,1.574 -1.6,0.639 -3.396,0.96 -5.387,0.96zm0.053 -2.961c0.587,0 1.08,-0.022 1.481,-0.067 0.399,-0.044 0.813,-0.128 1.24,-0.253 0.426,-0.124 0.751,-0.333 0.973,-0.626 0.222,-0.294 0.333,-0.663 0.333,-1.107l0 -7.6c0,-0.818 -0.329,-1.4 -0.987,-1.747 -0.657,-0.346 -1.68,-0.52 -3.066,-0.52 -1.387,0 -2.409,0.169 -3.067,0.507 -0.658,0.338 -0.987,0.924 -0.987,1.76l0 7.6c0,0.444 0.116,0.813 0.347,1.107 0.231,0.293 0.569,0.502 1.013,0.626 0.427,0.125 0.84,0.209 1.24,0.253 0.4,0.045 0.894,0.067 1.48,0.067z"/>
  <polygon id="4" class="fil1" points="179.533,24.176 193,24.176 193,27.136 183.693,27.136 183.693,31.376 192.12,31.376 192.12,34.336 183.693,34.336 183.693,41.483 179.533,41.483 "/>
  <path id="5" class="fil1" d="M207.534 41.75c-1.654,0 -3.698,-0.161 -6.134,-0.48l0 -3.174c3.022,0.462 5.084,0.693 6.187,0.693 2.311,0 3.467,-0.595 3.467,-1.786l0 -1.12c0,-0.569 -0.165,-1.005 -0.494,-1.307 -0.329,-0.302 -0.92,-0.453 -1.773,-0.453l-2.027 0c-3.804,0 -5.706,-1.512 -5.706,-4.534l0 -1.28c0,-1.511 0.63,-2.622 1.893,-3.333 1.262,-0.711 3.262,-1.067 6,-1.067 1.422,0 3.226,0.116 5.413,0.347l0 3.093c-2.684,-0.32 -4.533,-0.48 -5.547,-0.48 -1.404,0 -2.346,0.116 -2.826,0.347 -0.516,0.249 -0.774,0.64 -0.774,1.173l0 1.227c0,0.906 0.765,1.36 2.294,1.36l2.08 0c1.973,0 3.404,0.364 4.293,1.093 0.889,0.729 1.334,1.84 1.334,3.334l0 1.146c0,2.062 -0.738,3.458 -2.214,4.187 -0.711,0.373 -1.497,0.636 -2.36,0.787 -0.862,0.151 -1.898,0.227 -3.106,0.227z"/>
  <polygon id="6" class="fil1" points="222.094,27.136 216.76,27.136 216.76,24.176 231.561,24.176 231.561,27.136 226.254,27.136 226.254,41.483 222.094,41.483 "/>
  <path id="7" class="fil1" d="M241.774 41.75c-0.96,0 -1.844,-0.063 -2.653,-0.187 -0.809,-0.125 -1.649,-0.338 -2.52,-0.64 -0.943,-0.32 -1.68,-0.84 -2.214,-1.56 -0.533,-0.72 -0.8,-1.596 -0.8,-2.627l0 -7.573c0,-0.854 0.191,-1.618 0.573,-2.294 0.383,-0.675 0.876,-1.209 1.481,-1.6 0.533,-0.338 1.19,-0.622 1.973,-0.853 0.782,-0.231 1.511,-0.374 2.187,-0.427 0.622,-0.053 1.279,-0.08 1.973,-0.08 0.818,0 1.529,0.031 2.133,0.094 0.605,0.062 1.28,0.191 2.027,0.386 0.853,0.249 1.555,0.551 2.106,0.907 0.552,0.355 1.014,0.853 1.387,1.493 0.391,0.658 0.587,1.449 0.587,2.374l0 7.573c0,0.96 -0.253,1.787 -0.76,2.48 -0.507,0.693 -1.204,1.218 -2.093,1.574 -1.6,0.639 -3.396,0.96 -5.387,0.96zm0.053 -2.961c0.587,0 1.08,-0.022 1.48,-0.067 0.4,-0.044 0.814,-0.128 1.24,-0.253 0.427,-0.124 0.751,-0.333 0.974,-0.626 0.222,-0.294 0.333,-0.663 0.333,-1.107l0 -7.6c0,-0.818 -0.329,-1.4 -0.987,-1.747 -0.658,-0.346 -1.68,-0.52 -3.067,-0.52 -1.386,0 -2.408,0.169 -3.066,0.507 -0.658,0.338 -0.987,0.924 -0.987,1.76l0 7.6c0,0.444 0.116,0.813 0.347,1.107 0.231,0.293 0.569,0.502 1.013,0.626 0.427,0.125 0.84,0.209 1.24,0.253 0.4,0.045 0.894,0.067 1.48,0.067z"/>
  <path id="8" class="fil1" d="M261.027 41.75c-0.782,0 -1.479,-0.036 -2.093,-0.107 -0.613,-0.071 -1.284,-0.205 -2.013,-0.4 -0.818,-0.213 -1.493,-0.494 -2.027,-0.841 -0.533,-0.346 -0.978,-0.831 -1.333,-1.453 -0.374,-0.622 -0.56,-1.36 -0.56,-2.213l0 -7.6c0,-3.485 2.675,-5.227 8.026,-5.227 1.369,0 3.2,0.196 5.494,0.587l0 3.12c-2.062,-0.498 -3.876,-0.747 -5.44,-0.747 -0.658,0 -1.169,0.018 -1.533,0.053 -0.365,0.036 -0.743,0.125 -1.134,0.267 -0.836,0.285 -1.253,0.916 -1.253,1.893l0 7.361c0,1.564 1.431,2.346 4.293,2.346 1.227,0 2.951,-0.257 5.173,-0.773l0 3.147c-1.902,0.391 -3.769,0.587 -5.6,0.587z"/>
  <path id="9" class="fil1" d="M269.294 24.176l4.16 0 0 17.307 -4.16 0 0 -17.307zm4.267 8.133l6.48 -8.133 4.88 0 -6.56 8.053 7.28 9.254 -5.067 0 -7.013 -9.174z"/>
  <path id="10" class="fil1" d="M100.066 58.203l7.013 0c1.653,0 2.929,0.12 3.827,0.36 0.897,0.24 1.533,0.622 1.906,1.147 0.373,0.524 0.56,1.257 0.56,2.2l0 2.133c0,0.48 -0.191,0.933 -0.573,1.36 -0.382,0.427 -0.831,0.72 -1.347,0.88l0 0.133c0.676,0.072 1.293,0.36 1.854,0.867 0.56,0.507 0.839,1.071 0.839,1.694l0 2.666c0,1.404 -0.559,2.4 -1.68,2.987 -1.119,0.587 -2.853,0.88 -5.199,0.88l-7.2 0 0 -17.307zm7.013 7.04c0.658,0 1.147,-0.053 1.467,-0.16 0.319,-0.107 0.537,-0.28 0.653,-0.52 0.115,-0.24 0.173,-0.591 0.173,-1.053l0 -0.854c0,-0.409 -0.053,-0.715 -0.16,-0.92 -0.107,-0.204 -0.324,-0.351 -0.653,-0.439 -0.329,-0.09 -0.849,-0.134 -1.56,-0.134l-2.773 0 0 4.08 2.853 0zm0.106 7.307c1.014,0 1.734,-0.116 2.16,-0.347 0.427,-0.231 0.641,-0.604 0.641,-1.12l0 -1.386c0,-0.641 -0.165,-1.094 -0.494,-1.361 -0.329,-0.266 -0.911,-0.4 -1.746,-0.4l-3.52 0 0 4.614 2.959 0z"/>
  <polygon id="11" class="fil1" points="116.999,58.203 121.159,58.203 121.159,75.51 116.999,75.51 "/>
  <path id="12" class="fil1" d="M123.426 72.55l0.373 0c0.729,0 1.32,-0.28 1.773,-0.84 0.454,-0.56 0.805,-1.587 1.054,-3.08 0.249,-1.494 0.373,-3.609 0.373,-6.347l0 -4.08 12.587 0 0 14.347 2.533 0 0 6.987 -3.733 0 0 -4.027 -11.227 0 0 4.027 -3.733 0 0 -6.987zm12 0.027l0 -11.441 -4.693 0 0 2.134c0,4.497 -0.578,7.6 -1.734,9.307l6.427 0z"/>
  <path id="13" class="fil1" d="M152.226 75.777c-0.782,0 -1.48,-0.036 -2.093,-0.107 -0.614,-0.071 -1.285,-0.205 -2.014,-0.4 -0.818,-0.213 -1.493,-0.493 -2.026,-0.84 -0.534,-0.347 -0.978,-0.831 -1.334,-1.454 -0.373,-0.622 -0.56,-1.359 -0.56,-2.213l0 -7.6c0,-3.484 2.676,-5.226 8.027,-5.226 1.369,0 3.2,0.195 5.493,0.586l0 3.12c-2.062,-0.498 -3.875,-0.747 -5.44,-0.747 -0.658,0 -1.169,0.018 -1.533,0.054 -0.365,0.035 -0.742,0.124 -1.133,0.266 -0.836,0.285 -1.254,0.916 -1.254,1.894l0 7.36c0,1.564 1.431,2.347 4.293,2.347 1.227,0 2.952,-0.258 5.174,-0.774l0 3.147c-1.902,0.391 -3.769,0.587 -5.6,0.587z"/>
  <path id="14" class="fil1" d="M162.999 75.777c-0.64,0 -1.413,-0.09 -2.32,-0.267l0 -3.04c0.374,0.089 0.743,0.169 1.107,0.24 0.364,0.071 0.716,0.107 1.053,0.107 0.498,0 0.92,-0.121 1.267,-0.361 0.347,-0.24 0.644,-0.609 0.893,-1.106l0.374 -0.774 -6.694 -12.373 4.347 0 4.347 8.693 0.107 0 3.439 -8.693 4.187 0 -6.267 13.894c-0.568,1.28 -1.288,2.213 -2.16,2.799 -0.871,0.587 -2.097,0.881 -3.68,0.881z"/>
  <polygon id="15" class="fil1" points="180.706,61.163 175.373,61.163 175.373,58.203 190.173,58.203 190.173,61.163 184.866,61.163 184.866,75.51 180.706,75.51 "/>
  <polygon id="16" class="fil1" points="192.573,58.203 196.733,58.203 196.733,65.137 204.093,65.137 204.093,58.203 208.253,58.203 208.253,75.51 204.093,75.51 204.093,68.096 196.733,68.096 196.733,75.51 192.573,75.51 "/>
  <polygon id="17" class="fil1" points="211.987,58.203 216.147,58.203 216.147,75.51 211.987,75.51 "/>
  <path id="18" class="fil1" d="M219.88 58.203l4.16 0 0 11.84 7.467 -11.84 4.16 0 0 17.307 -4.16 0 0 -12.027 -7.467 12.027 -4.16 0 0 -17.307zm7.92 -1.84c-1.76,0 -3.093,-0.387 -4,-1.16 -0.906,-0.774 -1.36,-1.782 -1.36,-3.027l3.334 0c0.088,0.765 0.288,1.307 0.599,1.627 0.312,0.32 0.787,0.48 1.427,0.48 0.64,0 1.116,-0.16 1.427,-0.48 0.311,-0.32 0.511,-0.862 0.6,-1.627l3.333 0c0,1.245 -0.453,2.253 -1.36,3.027 -0.906,0.773 -2.24,1.16 -4,1.16z"/>
  <polygon class="fil2" points="23.122,68.496 41,50.619 23.122,32.752 30.685,25.157 48.563,43.035 66.472,25.157 74.066,32.72 56.157,50.619 74.066,68.528 66.472,76.091 48.563,58.214 30.685,76.091 "/>
 </g>
</svg>
